# This file uses meters as units for non-parametric coordinates.

mtllib Hologram.mtl
g default
v 973.058933 -0.000704 -2868.346802
v 1250.265842 -0.000704 -2868.346802
v 973.058933 -0.000704 -3145.552368
v 1250.265842 -0.000704 -3145.552368
v 1111.662449 -0.000208 -2825.929321
v 930.641636 -0.000208 -3006.949829
v 1292.683323 -0.000208 -3006.949829
v 1111.662449 -0.000208 -3187.969849
v 1026.144748 -0.000292 -2838.474243
v 1197.180027 -0.000292 -2838.474243
v 943.187656 -0.000292 -2921.431763
v 1280.137302 -0.000292 -2921.431763
v 1280.137302 -0.000292 -3092.467407
v 1197.180027 -0.000292 -3175.423462
v 943.187656 -0.000292 -3092.467407
v 1026.144748 -0.000292 -3175.423462
v 994.681003 117.568586 -2889.968872
v 1039.485569 117.568937 -2864.755981
v 969.469639 117.568937 -2934.772583
v 1111.662449 117.568998 -2854.168579
v 958.880771 117.568998 -3006.949829
v 1183.839328 117.568937 -2864.755981
v 1228.643772 117.568586 -2889.968872
v 1253.855320 117.568937 -2934.772583
v 1264.444187 117.568998 -3006.949829
v 1253.855320 117.568937 -3079.126587
v 1228.643772 117.568586 -3123.930298
v 1183.839328 117.568937 -3149.141724
v 1111.662449 117.568998 -3159.731079
v 969.469639 117.568937 -3079.126587
v 1039.485569 117.568937 -3149.141724
v 994.681003 117.568586 -3123.930298
v 1013.214206 117.568678 -2908.502075
v 1050.920383 117.568983 -2887.283813
v 991.997043 117.568983 -2946.207642
v 1111.662449 117.569029 -2878.373169
v 983.085727 117.569029 -3006.949829
v 1172.404392 117.568983 -2887.283813
v 1210.110569 117.568678 -2908.502075
v 1231.327976 117.568983 -2946.207642
v 1240.239231 117.569029 -3006.949829
v 1231.327976 117.568983 -3067.692017
v 1210.110569 117.568678 -3105.397583
v 1172.404392 117.568983 -3126.614380
v 1111.662449 117.569029 -3135.526001
v 991.997043 117.568983 -3067.692017
v 1050.920383 117.568983 -3126.614380
v 1013.214206 117.568678 -3105.397583
v 1013.214206 9.148230 -2908.502075
v 1050.920383 9.148535 -2887.283813
v 991.997043 9.148535 -2946.207642
v 1111.662449 9.148581 -2878.373169
v 983.085727 9.148581 -3006.949829
v 1172.404392 9.148535 -2887.283813
v 1210.110569 9.148230 -2908.502075
v 1231.327976 9.148535 -2946.207642
v 1240.239231 9.148581 -3006.949829
v 1231.327976 9.148535 -3067.692017
v 1210.110569 9.148230 -3105.397583
v 1172.404392 9.148535 -3126.614380
v 1111.662449 9.148581 -3135.526001
v 991.997043 9.148535 -3067.692017
v 1050.920383 9.148535 -3126.614380
v 1013.214206 9.148230 -3105.397583
vt 0.213255 0.397178
vt 0.263111 0.344420
vt 0.371714 0.449014
vt 0.329573 0.491714
vt 0.171429 0.456316
vt 0.294671 0.541417
vt 0.339107 0.276183
vt 0.437148 0.389910
vt 0.118456 0.544144
vt 0.249538 0.617755
vt 0.417616 0.211210
vt 0.505064 0.332663
vt 0.476354 0.169239
vt 0.554388 0.297198
vt 0.540633 0.135810
vt 0.608139 0.270710
vt 0.634799 0.096195
vt 0.689117 0.236287
vt 0.730683 0.060420
vt 0.771637 0.204283
vt 0.800805 0.040132
vt 0.829418 0.186725
vt 0.874021 0.030307
vt 0.888326 0.179195
vt 0.979669 0.026948
vt 0.153295 0.895843
vt 0.069218 0.635091
vt 0.207589 0.694981
vt 0.021574 0.775068
vt 0.166817 0.807529
vt 0.040085 0.703114
vt 0.182389 0.749154
vt 0.395299 0.468603
vt 0.353800 0.512790
vt 0.318269 0.561556
vt 0.456419 0.412271
vt 0.275289 0.632395
vt 0.520588 0.359483
vt 0.570266 0.325110
vt 0.623970 0.297012
vt 0.700026 0.263834
vt 0.777506 0.234885
vt 0.834968 0.218478
vt 0.893403 0.209155
vt 0.182328 0.894229
vt 0.236603 0.705386
vt 0.196353 0.816791
vt 0.212646 0.760208
vt 0.491227 0.561010
vt 0.457909 0.598470
vt 0.428033 0.638138
vt 0.543428 0.511771
vt 0.390187 0.698297
vt 0.599264 0.467640
vt 0.640752 0.440133
vt 0.684783 0.415816
vt 0.750686 0.386548
vt 0.818539 0.363131
vt 0.867454 0.350555
vt 0.918077 0.341318
vt 0.304148 0.926951
vt 0.357422 0.762172
vt 0.322747 0.856536
vt 0.338320 0.808773
vt 0.971100 0.202960
vt 0.992895 0.330333
vt 0.976026 0.175485
vt 0.005034 0.879554
vn -0.475718 0.242960 0.845377
vn -0.475718 0.242960 0.845378
vn -0.475718 0.242960 0.845377
vn -0.475718 0.242960 0.845377
vn -0.845384 0.242961 0.475706
vn -0.845384 0.242961 0.475706
vn -0.845384 0.242961 0.475706
vn -0.845384 0.242961 0.475706
vn -0.141205 0.231208 0.962603
vn -0.141205 0.231208 0.962603
vn -0.141205 0.231208 0.962603
vn -0.141205 0.231208 0.962603
vn -0.962600 0.231209 0.141220
vn -0.962600 0.231209 0.141220
vn -0.962600 0.231209 0.141220
vn -0.962600 0.231209 0.141220
vn 0.141205 0.231208 0.962603
vn 0.141205 0.231208 0.962603
vn 0.141205 0.231208 0.962603
vn 0.141205 0.231208 0.962603
vn 0.475718 0.242960 0.845377
vn 0.475718 0.242960 0.845377
vn 0.475718 0.242960 0.845377
vn 0.475718 0.242960 0.845377
vn 0.845382 0.242961 0.475709
vn 0.845382 0.242961 0.475709
vn 0.845382 0.242961 0.475709
vn 0.845382 0.242961 0.475709
vn 0.962600 0.231209 0.141220
vn 0.962600 0.231209 0.141220
vn 0.962600 0.231209 0.141220
vn 0.962600 0.231209 0.141220
vn 0.962601 0.231208 -0.141220
vn 0.962601 0.231208 -0.141220
vn 0.962601 0.231208 -0.141220
vn 0.962601 0.231208 -0.141220
vn 0.845383 0.242960 -0.475708
vn 0.845383 0.242960 -0.475708
vn 0.845383 0.242960 -0.475708
vn 0.845383 0.242960 -0.475708
vn 0.475697 0.242959 -0.845389
vn 0.475697 0.242959 -0.845389
vn 0.475697 0.242959 -0.845389
vn 0.475697 0.242959 -0.845389
vn 0.141226 0.231206 -0.962600
vn 0.141226 0.231206 -0.962600
vn 0.141226 0.231206 -0.962600
vn 0.141226 0.231206 -0.962600
vn -0.962601 0.231208 -0.141220
vn -0.962601 0.231208 -0.141220
vn -0.962601 0.231208 -0.141220
vn -0.962601 0.231208 -0.141220
vn -0.141226 0.231206 -0.962600
vn -0.141226 0.231206 -0.962600
vn -0.141226 0.231206 -0.962600
vn -0.141226 0.231206 -0.962600
vn -0.475697 0.242960 -0.845389
vn -0.475697 0.242960 -0.845389
vn -0.475697 0.242960 -0.845389
vn -0.475697 0.242960 -0.845389
vn -0.845384 0.242960 -0.475706
vn -0.845384 0.242960 -0.475705
vn -0.845384 0.242960 -0.475706
vn -0.845384 0.242960 -0.475706
vn -0.000007 1.000000 -0.000002
vn -0.000007 1.000000 -0.000002
vn -0.000007 1.000000 -0.000002
vn -0.000007 1.000000 -0.000002
vn 0.000002 1.000000 0.000007
vn 0.000002 1.000000 0.000007
vn 0.000002 1.000000 0.000007
vn 0.000002 1.000000 0.000007
vn -0.000001 1.000000 0.000002
vn -0.000001 1.000000 0.000002
vn -0.000001 1.000000 0.000002
vn -0.000001 1.000000 0.000002
vn -0.000001 1.000000 0.000001
vn -0.000001 1.000000 0.000001
vn -0.000001 1.000000 0.000001
vn -0.000001 1.000000 0.000001
vn 0.000001 1.000000 0.000001
vn 0.000001 1.000000 0.000001
vn 0.000001 1.000000 0.000001
vn 0.000001 1.000000 0.000001
vn 0.000007 1.000000 -0.000001
vn 0.000007 1.000000 -0.000001
vn 0.000007 1.000000 -0.000001
vn 0.000007 1.000000 -0.000001
vn -0.000002 1.000000 0.000007
vn -0.000002 1.000000 0.000007
vn -0.000002 1.000000 0.000007
vn -0.000002 1.000000 0.000007
vn 0.000001 1.000000 0.000001
vn 0.000001 1.000000 0.000001
vn 0.000001 1.000000 0.000001
vn 0.000001 1.000000 0.000001
vn 0.000001 1.000000 -0.000001
vn 0.000001 1.000000 -0.000001
vn 0.000001 1.000000 -0.000001
vn 0.000001 1.000000 -0.000001
vn -0.000002 1.000000 -0.000008
vn -0.000002 1.000000 -0.000008
vn -0.000002 1.000000 -0.000008
vn -0.000002 1.000000 -0.000008
vn 0.000007 1.000000 0.000002
vn 0.000007 1.000000 0.000002
vn 0.000007 1.000000 0.000002
vn 0.000007 1.000000 0.000002
vn 0.000001 1.000000 -0.000001
vn 0.000001 1.000000 -0.000001
vn 0.000001 1.000000 -0.000001
vn 0.000001 1.000000 -0.000001
vn -0.000001 1.000000 -0.000001
vn -0.000001 1.000000 -0.000001
vn -0.000001 1.000000 -0.000001
vn -0.000001 1.000000 -0.000001
vn -0.000001 1.000000 -0.000001
vn -0.000001 1.000000 -0.000001
vn -0.000001 1.000000 -0.000001
vn -0.000001 1.000000 -0.000001
vn -0.000007 1.000000 0.000002
vn -0.000007 1.000000 0.000002
vn -0.000007 1.000000 0.000002
vn -0.000007 1.000000 0.000002
vn 0.000002 1.000000 -0.000007
vn 0.000002 1.000000 -0.000007
vn 0.000002 1.000000 -0.000007
vn 0.000002 1.000000 -0.000007
vn 0.490410 0.000000 -0.871492
vn 0.490410 0.000000 -0.871492
vn 0.490410 0.000000 -0.871492
vn 0.490410 0.000000 -0.871492
vn 0.871499 0.000000 -0.490397
vn 0.871499 0.000000 -0.490397
vn 0.871499 0.000000 -0.490397
vn 0.871499 0.000000 -0.490397
vn 0.145143 0.000000 -0.989411
vn 0.145143 0.000000 -0.989411
vn 0.145143 0.000000 -0.989411
vn 0.145143 0.000000 -0.989411
vn 0.989409 0.000000 -0.145154
vn 0.989409 0.000000 -0.145154
vn 0.989409 0.000000 -0.145154
vn 0.989409 0.000000 -0.145154
vn -0.145143 0.000000 -0.989411
vn -0.145143 0.000000 -0.989411
vn -0.145143 0.000000 -0.989411
vn -0.145143 0.000000 -0.989411
vn -0.490410 0.000000 -0.871492
vn -0.490410 0.000000 -0.871492
vn -0.490410 0.000000 -0.871492
vn -0.490410 0.000000 -0.871492
vn -0.871497 0.000000 -0.490401
vn -0.871497 0.000000 -0.490401
vn -0.871497 0.000000 -0.490401
vn -0.871497 0.000000 -0.490401
vn -0.989409 0.000000 -0.145153
vn -0.989409 0.000000 -0.145153
vn -0.989409 0.000000 -0.145153
vn -0.989409 0.000000 -0.145153
vn -0.989409 0.000000 0.145152
vn -0.989409 0.000000 0.145152
vn -0.989409 0.000000 0.145152
vn -0.989409 0.000000 0.145152
vn -0.871497 0.000000 0.490401
vn -0.871497 0.000000 0.490401
vn -0.871497 0.000000 0.490401
vn -0.871497 0.000000 0.490401
vn -0.490382 0.000000 0.871508
vn -0.490382 0.000000 0.871508
vn -0.490382 0.000000 0.871508
vn -0.490382 0.000000 0.871508
vn -0.145161 0.000000 0.989408
vn -0.145161 0.000000 0.989408
vn -0.145161 0.000000 0.989408
vn -0.145161 0.000000 0.989408
vn 0.989409 0.000000 0.145153
vn 0.989409 0.000000 0.145153
vn 0.989409 0.000000 0.145153
vn 0.989409 0.000000 0.145153
vn 0.145161 0.000000 0.989408
vn 0.145161 0.000000 0.989408
vn 0.145161 0.000000 0.989408
vn 0.145161 0.000000 0.989408
vn 0.490382 0.000000 0.871508
vn 0.490382 0.000000 0.871508
vn 0.490382 0.000000 0.871508
vn 0.490382 0.000000 0.871508
vn 0.871499 0.000000 0.490397
vn 0.871499 0.000000 0.490397
vn 0.871499 0.000000 0.490397
vn 0.871499 0.000000 0.490397
s off
g pCube5
usemtl initialShadingGroup
f 1/1/1 9/2/2 18/3/3 17/4/4
f 11/5/5 1/1/6 17/4/7 19/6/8
f 9/2/9 5/7/10 20/8/11 18/3/12
f 6/9/13 11/5/14 19/6/15 21/10/16
f 5/7/17 10/11/18 22/12/19 20/8/20
f 10/11/21 2/13/22 23/14/23 22/12/24
f 2/13/25 12/15/26 24/16/27 23/14/28
f 12/15/29 7/17/30 25/18/31 24/16/32
f 7/17/33 13/19/34 26/20/35 25/18/36
f 13/19/37 4/21/38 27/22/39 26/20/40
f 4/21/41 14/23/42 28/24/43 27/22/44
f 14/23/45 8/25/46 29/67/47 28/24/48
f 15/27/49 6/9/50 21/10/51 30/28/52
f 8/68/53 16/29/54 31/30/55 29/26/56
f 16/29/57 3/31/58 32/32/59 31/30/60
f 3/31/61 15/27/62 30/28/63 32/32/64
f 17/4/65 18/3/66 34/33/67 33/34/68
f 19/6/69 17/4/70 33/34/71 35/35/72
f 18/3/73 20/8/74 36/36/75 34/33/76
f 21/10/77 19/6/78 35/35/79 37/37/80
f 20/8/81 22/12/82 38/38/83 36/36/84
f 22/12/85 23/14/86 39/39/87 38/38/88
f 23/14/89 24/16/90 40/40/91 39/39/92
f 24/16/93 25/18/94 41/41/95 40/40/96
f 25/18/97 26/20/98 42/42/99 41/41/100
f 26/20/101 27/22/102 43/43/103 42/42/104
f 27/22/105 28/24/106 44/44/107 43/43/108
f 28/24/109 29/67/110 45/65/111 44/44/112
f 30/28/113 21/10/114 37/37/115 46/46/116
f 29/26/117 31/30/118 47/47/119 45/45/120
f 31/30/121 32/32/122 48/48/123 47/47/124
f 32/32/125 30/28/126 46/46/127 48/48/128
f 33/34/129 34/33/130 50/49/131 49/50/132
f 35/35/133 33/34/134 49/50/135 51/51/136
f 34/33/137 36/36/138 52/52/139 50/49/140
f 37/37/141 35/35/142 51/51/143 53/53/144
f 36/36/145 38/38/146 54/54/147 52/52/148
f 38/38/149 39/39/150 55/55/151 54/54/152
f 39/39/153 40/40/154 56/56/155 55/55/156
f 40/40/157 41/41/158 57/57/159 56/56/160
f 41/41/161 42/42/162 58/58/163 57/57/164
f 42/42/165 43/43/166 59/59/167 58/58/168
f 43/43/169 44/44/170 60/60/171 59/59/172
f 44/44/173 45/65/174 61/66/175 60/60/176
f 46/46/177 37/37/178 53/53/179 62/62/180
f 45/45/181 47/47/182 63/63/183 61/61/184
f 47/47/185 48/48/186 64/64/187 63/63/188
f 48/48/189 46/46/190 62/62/191 64/64/192
