# This file uses centimeters as units for non-parametric coordinates.

mtllib PortaPotty.mtl
g default
v -1.000000 7.070627 3.798451
v 2.927089 7.070627 3.798451
v -1.000000 7.070627 0.000000
v 2.927089 7.070627 0.000000
v -0.768305 7.827851 3.798451
v -1.000000 7.268490 3.798451
v -0.208943 8.059547 3.798451
v -1.000000 7.268490 0.000000
v -0.768305 7.827851 0.000000
v -0.208943 8.059547 0.000000
v 2.695395 7.827851 3.798451
v 2.136033 8.059547 3.798451
v 2.927090 7.268490 3.798451
v 2.927090 7.268490 0.000000
v 2.136033 8.059547 0.000000
v 2.695395 7.827851 0.000000
v -1.000000 0.000000 3.798451
v 2.927090 0.000000 3.798451
v -1.000000 0.000000 0.000000
v 2.927090 0.000000 0.000000
v -1.000000 6.328828 3.798451
v -1.000000 6.328828 0.000000
v 2.927090 6.328828 0.000000
v 2.927090 6.328828 3.798451
v -0.870447 6.353299 3.673142
v -0.870447 6.353299 0.125309
v -0.870447 7.046155 3.673142
v -0.870447 7.046155 0.125309
v 2.797537 6.353299 0.125309
v 2.797537 6.353299 3.673142
v 2.797537 7.046155 0.125309
v 2.797537 7.046155 3.673142
v -0.870447 6.353299 1.863243
v -1.000000 6.328828 1.860702
v -1.000000 0.000000 1.860702
v 2.927090 0.000000 1.860702
v 2.927090 6.328828 1.860702
v 2.797537 6.353299 1.863243
v 2.797537 7.046155 1.863243
v 2.927090 7.070627 1.860702
v -1.000000 7.070627 1.860702
v -0.870447 7.046155 1.863243
v -0.870447 6.353299 1.935208
v -1.000000 6.328828 1.937750
v -1.000000 0.000000 1.937750
v 2.927090 0.000000 1.937750
v 2.927090 6.328828 1.937750
v 2.797537 6.353299 1.935208
v 2.797537 7.046155 1.935208
v 2.927090 7.070627 1.937750
v -1.000000 7.070627 1.937750
v -0.870447 7.046155 1.935208
v -0.766460 0.420483 3.798451
v 2.693549 0.420483 3.798451
v 2.693549 5.996572 3.798451
v -0.766460 5.996572 3.798451
v 2.693549 6.650144 3.798451
v -0.766460 6.650144 3.798451
vt 0.478333 0.538393
vt 0.501170 0.486823
vt 0.519592 0.765805
vt 0.507327 0.766339
vt 0.506072 0.514773
vt 0.444517 0.552566
vt 0.007133 0.491300
vt 0.236171 0.515344
vt 0.294178 0.762320
vt 0.247930 0.517106
vt 0.307993 0.554525
vt 0.217831 0.756644
vt 0.432042 0.770048
vt 0.274336 0.541426
vt 0.256253 0.760590
vt 0.469860 0.769909
vt 0.248336 0.505258
vt 0.206277 0.755726
vt 0.759571 0.533897
vt 0.980982 0.529461
vt 0.945469 0.544945
vt 0.795571 0.547944
vt 0.265032 0.059628
vt 0.484605 0.060047
vt 0.517419 0.516957
vt 0.743799 0.486059
vt 0.499352 0.033251
vt 0.618010 0.031864
vt 0.619665 0.433442
vt 0.500769 0.436067
vt 0.131034 0.032013
vt 0.250255 0.032687
vt 0.485679 0.415295
vt 0.264207 0.416789
vt 0.249241 0.437765
vt 0.130806 0.433961
vt 0.130251 0.487497
vt 0.130566 0.442355
vt 0.994392 0.433445
vt 0.743421 0.435870
vt 0.239621 0.444329
vt 0.238886 0.482628
vt 0.510984 0.442431
vt 0.619824 0.441869
vt 0.619820 0.486612
vt 0.510896 0.480704
vt 0.130411 0.496012
vt 0.007318 0.435477
vt 0.017316 0.442420
vt 0.016905 0.484606
vt 0.733363 0.480254
vt 0.733719 0.442344
vt 0.619598 0.495059
vt 0.125922 0.433936
vt 0.126027 0.442378
vt 0.007228 0.032737
vt 0.126114 0.032012
vt 0.624558 0.433442
vt 0.622923 0.031840
vt 0.741464 0.032058
vt 0.624365 0.441847
vt 0.991013 0.030633
vt 0.995060 0.480845
vt 0.486032 0.458756
vt 0.264217 0.460197
vt 0.744146 0.498583
vt 0.995247 0.493466
vt 0.624367 0.486667
vt 0.624530 0.495123
vt 0.125728 0.487520
vt 0.125510 0.495979
vt 0.249222 0.488608
vt 0.505126 0.502496
vn -0.079523 0.996833 0.000000
vn -0.079523 0.996833 0.000000
vn 0.079523 0.996833 0.000000
vn 0.079523 0.996833 0.000000
vn 1.000000 -0.000003 0.000000
vn 1.000000 -0.000003 0.000000
vn 0.956238 0.292589 0.000000
vn 0.956238 0.292589 0.000000
vn -1.000000 0.000000 0.000000
vn -1.000000 0.000000 0.000000
vn -0.956238 0.292590 0.000000
vn -0.956238 0.292590 0.000000
vn -0.956238 0.292590 0.000000
vn -0.923879 0.382684 0.000000
vn -0.923879 0.382684 0.000000
vn -0.956238 0.292590 0.000000
vn -0.382685 0.923879 0.000000
vn -0.079523 0.996833 0.000000
vn -0.079523 0.996833 0.000000
vn -0.382685 0.923879 0.000000
vn 0.079523 0.996833 0.000000
vn 0.382685 0.923879 0.000000
vn 0.382685 0.923879 0.000000
vn 0.079523 0.996833 0.000000
vn 0.923879 0.382684 0.000000
vn 0.956238 0.292589 0.000000
vn 0.956238 0.292589 0.000000
vn 0.923879 0.382684 0.000000
vn 0.000000 0.000000 1.000000
vn 0.000000 0.000000 1.000000
vn 0.000000 0.000000 1.000000
vn 0.000000 0.000000 1.000000
vn 0.000000 0.000000 -1.000000
vn 0.000000 0.000000 -1.000000
vn 0.000000 0.000000 -1.000000
vn 0.000000 0.000000 -1.000000
vn 0.000000 0.000000 1.000000
vn 0.000000 0.000000 1.000000
vn 0.000000 0.000000 1.000000
vn 0.000000 0.000000 1.000000
vn 0.000000 0.000000 -1.000000
vn 0.000000 0.000000 -1.000000
vn 0.000000 0.000000 -1.000000
vn 0.000000 0.000000 -1.000000
vn 1.000000 0.000000 0.000000
vn 1.000000 0.000000 0.000000
vn 1.000000 0.000000 0.000000
vn 1.000000 0.000000 0.000000
vn -1.000000 0.000000 0.000000
vn -1.000000 0.000000 0.000000
vn -1.000000 0.000000 0.000000
vn -1.000000 0.000000 0.000000
vn -1.000000 0.000000 0.000000
vn -1.000000 0.000000 0.000000
vn -1.000000 0.000000 0.000000
vn -1.000000 0.000000 0.000000
vn 0.000000 0.000000 -1.000000
vn 0.000000 0.000000 -1.000000
vn 0.000000 0.000000 -1.000000
vn 0.000000 0.000000 -1.000000
vn 1.000000 0.000000 0.000000
vn 1.000000 0.000000 0.000000
vn 1.000000 0.000000 0.000000
vn 1.000000 0.000000 0.000000
vn 0.000000 0.000000 1.000000
vn 0.000000 0.000000 1.000000
vn 0.000000 0.000000 1.000000
vn 0.000000 0.000000 1.000000
vn -0.185608 0.982624 0.000000
vn -0.185608 0.982624 0.000000
vn -0.185608 0.982624 0.000000
vn -0.185608 0.982624 0.000000
vn -0.695237 0.000000 -0.718781
vn -0.695237 0.000000 -0.718781
vn -0.695237 0.000000 -0.718781
vn -0.695237 0.000000 -0.718781
vn -0.185615 -0.982623 0.000000
vn -0.185615 -0.982623 0.000000
vn -0.185615 -0.982623 0.000000
vn -0.185615 -0.982623 0.000000
vn -0.695237 0.000000 0.718781
vn -0.695237 0.000000 0.718781
vn -0.695237 0.000000 0.718781
vn -0.695237 0.000000 0.718781
vn 0.185608 0.982624 0.000000
vn 0.185608 0.982624 0.000000
vn 0.185608 0.982624 0.000000
vn 0.185608 0.982624 0.000000
vn 0.695236 0.000000 0.718781
vn 0.695236 0.000000 0.718781
vn 0.695236 0.000000 0.718781
vn 0.695236 0.000000 0.718781
vn 0.185615 -0.982623 0.000000
vn 0.185615 -0.982623 0.000000
vn 0.185615 -0.982623 0.000000
vn 0.185615 -0.982623 0.000000
vn 0.695237 0.000000 -0.718781
vn 0.695237 0.000000 -0.718781
vn 0.695237 0.000000 -0.718781
vn 0.695237 0.000000 -0.718781
vn -0.185608 0.982624 0.000000
vn -0.185608 0.982624 0.000000
vn -0.185608 0.982624 0.000000
vn -0.185608 0.982624 0.000000
vn -1.000000 0.000000 0.000000
vn -1.000000 0.000000 0.000000
vn -1.000000 0.000000 0.000000
vn -1.000000 0.000000 0.000000
vn 1.000000 0.000000 0.000000
vn 1.000000 0.000000 0.000000
vn 1.000000 0.000000 0.000000
vn 1.000000 0.000000 0.000000
vn 0.185608 0.982624 0.000000
vn 0.185608 0.982624 0.000000
vn 0.185608 0.982624 0.000000
vn 0.185608 0.982624 0.000000
vn 1.000000 0.000000 0.000000
vn 1.000000 0.000000 0.000000
vn 1.000000 0.000000 0.000000
vn 1.000000 0.000000 0.000000
vn 0.185615 -0.982623 0.000000
vn 0.185615 -0.982623 0.000000
vn 0.185615 -0.982623 0.000000
vn 0.185615 -0.982623 0.000000
vn -0.185615 -0.982623 0.000000
vn -0.185615 -0.982623 0.000000
vn -0.185615 -0.982623 0.000000
vn -0.185615 -0.982623 0.000000
vn -1.000000 0.000000 0.000000
vn -1.000000 0.000000 0.000000
vn -1.000000 0.000000 0.000000
vn -1.000000 0.000000 0.000000
vn -0.185608 0.982624 0.000000
vn -0.185608 0.982624 0.000000
vn -0.185608 0.982624 0.000000
vn -0.185608 0.982624 0.000000
vn -1.000000 0.000000 0.000000
vn -1.000000 0.000000 0.000000
vn -1.000000 0.000000 0.000000
vn -1.000000 0.000000 0.000000
vn 1.000000 0.000000 0.000000
vn 1.000000 0.000000 0.000000
vn 1.000000 0.000000 0.000000
vn 1.000000 0.000000 0.000000
vn 0.185608 0.982624 0.000000
vn 0.185608 0.982624 0.000000
vn 0.185608 0.982624 0.000000
vn 0.185608 0.982624 0.000000
vn 1.000000 0.000000 0.000000
vn 1.000000 0.000000 0.000000
vn 1.000000 0.000000 0.000000
vn 1.000000 0.000000 0.000000
vn 0.185615 -0.982623 0.000000
vn 0.185615 -0.982623 0.000000
vn 0.185615 -0.982623 0.000000
vn 0.185615 -0.982623 0.000000
vn -0.185615 -0.982623 0.000000
vn -0.185615 -0.982623 0.000000
vn -0.185615 -0.982623 0.000000
vn -0.185615 -0.982623 0.000000
vn -1.000000 0.000000 0.000000
vn -1.000000 0.000000 0.000000
vn -1.000000 0.000000 0.000000
vn -1.000000 0.000000 0.000000
vn 0.000000 0.000000 1.000000
vn 0.000000 0.000000 1.000000
vn 0.000000 0.000000 1.000000
vn 0.000000 0.000000 1.000000
vn 0.000000 0.000000 1.000000
vn 0.000000 0.000000 1.000000
vn 0.000000 0.000000 1.000000
vn 0.000000 0.000000 1.000000
vn 0.000000 0.000000 1.000000
vn 0.000000 0.000000 1.000000
vn 0.000000 0.000000 1.000000
vn 0.000000 0.000000 1.000000
vn 0.000000 0.000000 1.000000
vn 0.000000 0.000000 1.000000
vn 0.000000 0.000000 1.000000
vn 0.000000 0.000000 1.000000
vn 0.000000 0.000000 1.000000
vn 0.000000 0.000000 1.000000
vn 0.000000 0.000000 1.000000
vn 0.000000 0.000000 1.000000
vn -0.000001 0.000000 1.000000
vn -0.000001 0.000000 1.000000
vn -0.000001 0.000000 1.000000
vn -0.000001 0.000000 1.000000
vn 0.000000 0.000000 1.000000
vn 0.000000 0.000000 1.000000
vn 0.000000 0.000000 1.000000
vn 0.000000 0.000000 1.000000
vn 0.000000 0.000000 1.000000
vn 0.000000 0.000000 1.000000
vn 0.000000 0.000000 1.000000
vn 0.000000 0.000000 1.000000
vn 0.000000 0.000000 -1.000000
vn 0.000000 0.000000 -1.000000
vn 0.000000 0.000000 -1.000000
vn 0.000000 0.000000 -1.000000
vn 0.000000 0.000000 -1.000000
vn 0.000000 0.000000 -1.000000
vn 0.000000 0.000000 -1.000000
vn 0.000000 0.000000 -1.000000
s off
g pCube3
usemtl pCube3SG
f 10/9/1 7/11/2 12/6/3 15/13/4
f 2/25/5 4/3/6 14/4/7 13/5/8
f 3/18/9 1/8/10 6/10/11 8/12/12
f 6/10/13 5/14/14 9/15/15 8/12/16
f 5/14/17 7/11/18 10/9/19 9/15/20
f 12/6/21 11/1/22 16/16/23 15/13/24
f 11/1/25 13/5/26 14/4/27 16/16/28
f 11/1/29 12/6/30 7/11/31 5/14/32
f 16/19/33 9/20/34 10/21/35 15/22/36
f 53/23/37 54/24/38 55/33/39 56/34/40
f 22/39/41 23/40/42 20/60/43 19/62/44
f 18/27/45 46/28/46 47/29/47 24/30/48
f 45/31/49 17/32/50 21/35/51 44/36/52
f 52/37/53 43/38/54 25/41/55 27/42/56
f 3/63/57 4/26/58 23/40/59 22/39/60
f 30/43/61 48/44/62 49/45/63 32/46/64
f 56/34/65 55/33/66 57/64/67 58/65/68
f 44/36/69 21/35/70 25/41/71 43/38/72
f 21/35/73 1/72/74 27/42/75 25/41/76
f 1/72/77 51/47/78 52/37/79 27/42/80
f 3/7/81 22/48/82 26/49/83 28/50/84
f 24/30/85 47/29/86 48/44/87 30/43/88
f 23/40/89 4/26/90 31/51/91 29/52/92
f 50/53/93 2/2/94 32/46/95 49/45/96
f 2/2/97 24/30/98 30/43/99 32/46/100
f 22/48/101 34/54/102 33/55/103 26/49/104
f 19/56/105 35/57/106 34/54/107 22/48/108
f 37/58/109 36/59/110 20/60/111 23/40/112
f 38/61/113 37/58/114 23/40/115 29/52/116
f 39/68/117 38/61/118 29/52/119 31/51/120
f 4/26/121 40/69/122 39/68/123 31/51/124
f 42/70/125 41/71/126 3/7/127 28/50/128
f 26/49/129 33/55/130 42/70/131 28/50/132
f 34/54/133 44/36/134 43/38/135 33/55/136
f 35/57/137 45/31/138 44/36/139 34/54/140
f 47/29/141 46/28/142 36/59/143 37/58/144
f 48/44/145 47/29/146 37/58/147 38/61/148
f 49/45/149 48/44/150 38/61/151 39/68/152
f 40/69/153 50/53/154 49/45/155 39/68/156
f 52/37/157 51/47/158 41/71/159 42/70/160
f 42/70/161 33/55/162 43/38/163 52/37/164
f 17/32/165 18/27/166 54/24/167 53/23/168
f 18/27/169 24/30/170 55/33/171 54/24/172
f 21/35/173 17/32/174 53/23/175 56/34/176
f 24/30/177 2/2/178 57/64/179 55/33/180
f 2/2/181 1/72/182 58/65/183 57/64/184
f 1/72/185 21/35/186 56/34/187 58/65/188
f 11/1/189 5/14/190 6/10/191 13/5/192
f 13/5/193 6/10/194 1/17/195 2/73/196
f 14/66/197 8/67/198 9/20/199 16/19/200
f 14/66/201 4/26/202 3/63/203 8/67/204
