# This file uses meters as units for non-parametric coordinates.

mtllib Toolbox.mtl
g Tools3:default1
v -1709.183594 0.000000 588.658650
v -1709.183594 0.000000 241.565144
v -1709.183594 315.363983 588.658650
v -1709.183594 315.363983 241.565144
v -1900.000000 315.363983 588.658650
v -1900.000000 315.363983 241.565144
v -1900.000000 0.000000 588.658650
v -1900.000000 0.000000 241.565144
v -1840.434204 516.846985 570.858967
v -1840.434204 516.846985 259.364888
v -1844.805542 518.546082 570.858967
v -1844.805542 518.546082 259.364888
v -1890.706177 400.451599 570.858967
v -1890.706177 400.451599 259.364888
v -1886.334839 398.752563 570.858967
v -1886.334839 398.752563 259.364888
v -1770.626831 546.742615 570.858967
v -1770.626831 546.742615 259.364888
v -1774.108643 549.884583 259.364888
v -1774.108643 549.884583 570.858967
v -1747.086853 535.089233 570.858967
v -1746.362061 536.953796 259.364888
v -1744.912537 540.683105 259.364888
v -1745.637329 538.818420 570.858967
v -1709.183594 315.363983 588.658650
v -1709.183594 315.363983 241.565144
v -1709.183594 345.910217 588.658650
v -1709.183594 345.910217 241.565144
v -1900.000000 345.910217 588.658650
v -1900.000000 345.910217 241.565144
v -1900.000000 315.363983 588.658650
v -1900.000000 315.363983 241.565144
v -1764.005188 400.451599 588.658650
v -1764.005188 400.451599 241.565144
v -1900.000000 400.451599 241.565144
v -1900.000000 400.451599 588.658650
v -1709.183594 315.363983 570.858967
v -1709.183594 315.363983 259.364888
v -1709.183594 345.910217 259.364888
v -1709.183594 345.910217 570.858967
v -1764.005188 400.451599 570.858967
v -1764.005188 400.451599 259.364888
v -1890.706177 400.451599 259.364888
v -1890.706177 400.451599 570.858967
v -1764.005188 315.364044 570.858967
v -1764.005188 315.364044 259.364888
v -1890.706177 315.364044 259.364888
v -1890.706177 315.364044 570.858967
v -1709.183594 315.364044 570.858967
v -1709.183594 315.364044 259.364888
vt 0.395372 0.056966
vt 0.700458 0.056966
vt 0.700458 0.334163
vt 0.395372 0.334163
vt 0.307999 0.281683
vt 0.002913 0.281683
vt 0.002913 0.004486
vt 0.307999 0.004486
vt 0.290942 0.635383
vt 0.292724 0.337637
vt 0.296289 0.337637
vt 0.294507 0.635383
vt 0.284807 0.337637
vt 0.284807 0.635383
vt 0.171924 0.635383
vt 0.171924 0.337637
vt 0.042593 0.635383
vt 0.042593 0.337637
vt 0.155475 0.337637
vt 0.155475 0.635383
vt 0.960199 0.339750
vt 0.960199 0.368948
vt 0.943185 0.368948
vt 0.943185 0.339750
vt 0.960199 0.421084
vt 0.943185 0.421082
vt 0.966572 0.368948
vt 0.966572 0.339750
vt 0.983586 0.339750
vt 0.983586 0.368948
vt 0.966572 0.421082
vt 0.983586 0.421083
vt 0.590200 0.738014
vt 0.590200 0.819347
vt 0.292453 0.819347
vt 0.292453 0.738014
vt 0.310121 0.001871
vt 0.339320 0.001871
vt 0.339320 0.333645
vt 0.310121 0.333645
vt 0.391454 0.001871
vt 0.391454 0.333645
vt 0.998481 0.332474
vt 0.702771 0.332474
vt 0.702771 0.169905
vt 0.998481 0.169905
vt 0.161611 0.635383
vt 0.161611 0.337637
vt 0.165789 0.337637
vt 0.165789 0.635383
vt 0.001992 0.937121
vt 0.001992 0.639375
vt 0.068719 0.639375
vt 0.068719 0.937121
vt 0.091912 0.639375
vt 0.091220 0.937121
vt 0.099635 0.937121
vt 0.099635 0.639375
vt 0.167211 0.639375
vt 0.167211 0.937121
vt 0.194426 0.639375
vt 0.195119 0.937121
vt 0.960169 0.551077
vt 0.688369 0.652397
vt 0.966551 0.551074
vt 0.983567 0.542193
vt 0.490955 0.337637
vt 0.673350 0.337637
vt 0.673350 0.639082
vt 0.490955 0.639082
vt 0.302424 0.337637
vt 0.484819 0.337637
vt 0.484819 0.639082
vt 0.302424 0.639082
vt 0.689497 0.704983
vt 0.645622 0.817865
vt 0.641443 0.816241
vt 0.685318 0.703358
vt 0.752895 0.673403
vt 0.756223 0.676406
vt 0.780803 0.682198
vt 0.779417 0.685763
vt 0.791793 0.673403
vt 0.835668 0.786286
vt 0.831490 0.787910
vt 0.787615 0.675027
vt 0.902395 0.814862
vt 0.899066 0.817865
vt 0.924896 0.803723
vt 0.926281 0.807287
vt 0.293254 0.648956
vt 0.475649 0.648956
vt 0.475649 0.678154
vt 0.293254 0.678154
vt 0.475649 0.730288
vt 0.345656 0.730288
vt 0.748170 0.466059
vt 0.930565 0.466059
vt 0.930565 0.495257
vt 0.748170 0.495257
vt 0.878162 0.547391
vt 0.748170 0.547391
vt 0.868212 0.453393
vt 0.747103 0.453393
vt 0.747103 0.372061
vt 0.868212 0.372061
vt 0.920614 0.401259
vt 0.920614 0.372061
vt 0.658316 0.722976
vt 0.537207 0.722976
vt 0.537207 0.641644
vt 0.658316 0.641644
vt 0.484805 0.670842
vt 0.484805 0.641644
vt 0.679485 0.337637
vt 0.688369 0.354651
vt 0.679485 0.669412
vt 0.943157 0.542190
vn 1.000000 0.000000 0.000000
vn 1.000000 0.000000 0.000000
vn 1.000000 0.000000 0.000000
vn 1.000000 0.000000 0.000000
vn 0.000000 1.000000 0.000000
vn 0.000000 1.000000 0.000000
vn 0.000000 1.000000 0.000000
vn 0.000000 1.000000 0.000000
vn -1.000000 0.000000 -0.000000
vn -1.000000 0.000000 -0.000000
vn -1.000000 0.000000 -0.000000
vn -1.000000 0.000000 -0.000000
vn 0.000000 0.000000 -1.000000
vn 0.000000 0.000000 -1.000000
vn 0.000000 0.000000 -1.000000
vn 0.000000 0.000000 -1.000000
vn -0.000000 0.000000 1.000000
vn -0.000000 0.000000 1.000000
vn -0.000000 0.000000 1.000000
vn -0.000000 0.000000 1.000000
vn 0.932069 -0.362282 0.000000
vn 0.932069 -0.362282 0.000000
vn 0.932069 -0.362282 0.000000
vn 0.932069 -0.362282 0.000000
vn -0.932071 0.362275 -0.000000
vn -0.932071 0.362275 -0.000000
vn -0.932071 0.362275 -0.000000
vn -0.932071 0.362275 -0.000000
vn -0.362275 -0.932071 -0.000000
vn -0.362275 -0.932071 -0.000000
vn -0.362275 -0.932071 -0.000000
vn -0.362275 -0.932071 -0.000000
vn 0.932071 -0.362275 0.000000
vn 0.932071 -0.362275 0.000000
vn 0.932071 -0.362275 0.000000
vn 0.932071 -0.362275 0.000000
vn 0.000000 0.000000 -1.000000
vn 0.000000 0.000000 -1.000000
vn 0.000000 0.000000 -1.000000
vn 0.000000 0.000000 -1.000000
vn -0.000000 0.000000 1.000000
vn -0.000000 0.000000 1.000000
vn -0.000000 0.000000 1.000000
vn -0.000000 0.000000 1.000000
vn 0.393676 -0.919249 0.000000
vn 0.393676 -0.919249 0.000000
vn 0.393676 -0.919249 0.000000
vn 0.393676 -0.919249 0.000000
vn 0.000000 0.000000 -1.000000
vn 0.000000 0.000000 -1.000000
vn 0.000000 0.000000 -1.000000
vn 0.000000 0.000000 -1.000000
vn -0.405250 0.914206 -0.000000
vn -0.405250 0.914206 -0.000000
vn -0.405250 0.914206 -0.000000
vn -0.405250 0.914206 -0.000000
vn -0.000000 0.000000 1.000000
vn -0.000000 0.000000 1.000000
vn -0.000000 0.000000 1.000000
vn -0.000000 0.000000 1.000000
vn -0.409252 -0.912416 -0.003207
vn -0.409252 -0.912416 -0.003207
vn -0.409252 -0.912416 -0.003207
vn -0.409252 -0.912416 -0.003207
vn 0.000000 0.000000 -1.000000
vn 0.000000 0.000000 -1.000000
vn 0.000000 0.000000 -1.000000
vn 0.000000 0.000000 -1.000000
vn 0.331575 0.943423 0.003209
vn 0.331575 0.943423 0.003209
vn 0.331575 0.943423 0.003209
vn 0.331575 0.943423 0.003209
vn -0.000000 0.000000 1.000000
vn -0.000000 0.000000 1.000000
vn -0.000000 0.000000 1.000000
vn -0.000000 0.000000 1.000000
vn 0.000000 0.000000 -1.000000
vn 0.000000 0.000000 -1.000000
vn 0.000000 0.000000 -1.000000
vn 0.000000 0.000000 -1.000000
vn -0.000000 0.000000 1.000000
vn -0.000000 0.000000 1.000000
vn -0.000000 0.000000 1.000000
vn -0.000000 0.000000 1.000000
vn 0.000000 0.000000 -1.000000
vn 0.000000 0.000000 -1.000000
vn 0.000000 0.000000 -1.000000
vn 0.000000 0.000000 -1.000000
vn -0.000000 0.000000 1.000000
vn -0.000000 0.000000 1.000000
vn -0.000000 0.000000 1.000000
vn -0.000000 0.000000 1.000000
vn 1.000000 0.000000 0.000000
vn 1.000000 0.000000 0.000000
vn 1.000000 0.000000 0.000000
vn 1.000000 0.000000 0.000000
vn 1.000000 0.000000 0.000000
vn 1.000000 0.000000 0.000000
vn 1.000000 0.000000 0.000000
vn 1.000000 0.000000 0.000000
vn 0.000000 1.000000 0.000000
vn 0.000000 1.000000 0.000000
vn 0.000000 1.000000 0.000000
vn 0.000000 1.000000 0.000000
vn 0.000000 1.000000 0.000000
vn 0.000000 1.000000 0.000000
vn 0.000000 1.000000 0.000000
vn 0.000000 1.000000 0.000000
vn 0.000000 1.000000 0.000000
vn 0.000000 1.000000 0.000000
vn 0.000000 1.000000 0.000000
vn 0.000000 1.000000 0.000000
vn 0.705293 0.708916 0.000000
vn 0.705293 0.708916 0.000000
vn 0.705293 0.708916 0.000000
vn 0.705293 0.708916 0.000000
vn 0.705293 0.708916 0.000000
vn 0.705293 0.708916 0.000000
vn 0.705293 0.708916 0.000000
vn 0.705293 0.708916 0.000000
vn -0.000000 0.000000 1.000000
vn -0.000000 0.000000 1.000000
vn -0.000000 0.000000 1.000000
vn -0.000000 0.000000 1.000000
vn 0.000000 0.000000 -1.000000
vn 0.000000 0.000000 -1.000000
vn 0.000000 0.000000 -1.000000
vn 0.000000 0.000000 -1.000000
vn -0.000000 0.000000 1.000000
vn -0.000000 0.000000 1.000000
vn -0.000000 0.000000 1.000000
vn -0.000000 0.000000 1.000000
vn 0.000000 0.000000 -1.000000
vn 0.000000 0.000000 -1.000000
vn 0.000000 0.000000 -1.000000
vn 0.000000 0.000000 -1.000000
vn 1.000000 0.000000 0.000000
vn 1.000000 0.000000 0.000000
vn 1.000000 0.000000 0.000000
vn 1.000000 0.000000 0.000000
vn -1.000000 0.000000 -0.000000
vn -1.000000 0.000000 -0.000000
vn -1.000000 0.000000 -0.000000
vn -1.000000 0.000000 -0.000000
vn -1.000000 0.000000 -0.000000
vn -1.000000 0.000000 -0.000000
vn -1.000000 0.000000 -0.000000
vn -1.000000 0.000000 -0.000000
s off
g Tools3:Base polySurface8
usemtl ToolHindge1
f 1/1/1 2/2/2 4/3/3 3/4/4
f 3/43/5 4/44/6 6/45/7 5/46/8
f 5/5/9 6/6/10 8/7/11 7/8/12
f 2/67/13 8/68/14 6/69/15 4/70/16
f 7/71/17 1/72/18 3/73/19 5/74/20
g Tools3:pCube3 polySurface8
f 21/9/21 22/10/22 23/11/23 24/12/24
f 11/13/25 12/14/26 14/15/27 13/16/28
f 13/47/29 14/48/30 16/49/31 15/50/32
f 15/17/33 16/18/34 10/19/35 9/20/36
f 10/75/37 16/76/38 14/77/39 12/78/40
f 15/83/41 9/84/42 11/85/43 13/86/44
f 9/51/45 10/52/46 18/53/47 17/54/48
f 10/75/49 12/78/50 19/79/51 18/80/52
f 12/57/53 11/58/54 20/59/55 19/60/56
f 11/85/57 9/84/58 17/87/59 20/88/60
f 17/54/61 18/53/62 22/55/63 21/56/64
f 18/80/65 19/79/66 23/81/67 22/82/68
f 19/60/69 20/59/70 24/61/71 23/62/72
f 20/88/73 17/87/74 21/89/75 24/90/76
g Tools3:pCube2 Tools3:polySurface2 polySurface8
f 26/91/77 32/92/78 30/93/79 28/94/80
f 31/97/81 25/98/82 27/99/83 29/100/84
f 28/94/85 30/93/86 35/95/87 34/96/88
f 29/100/89 27/99/90 33/101/91 36/102/92
f 26/21/93 28/22/94 39/23/95 38/24/96
f 27/27/97 25/28/98 37/29/99 40/30/100
f 34/25/101 35/63/102 43/118/103 42/26/104
f 35/117/105 36/115/106 44/116/107 43/64/108
f 36/65/109 33/31/110 41/32/111 44/66/112
f 28/22/113 34/25/114 42/26/115 39/23/116
f 33/31/117 27/27/118 40/30/119 41/32/120
f 42/103/121 43/104/122 47/105/123 46/106/124
f 44/109/125 41/110/126 45/111/127 48/112/128
f 39/107/129 42/103/130 46/106/131 50/108/132
f 41/110/133 40/113/134 49/114/135 45/111/136
f 47/33/137 43/34/138 44/35/139 48/36/140
f 31/37/141 29/38/142 30/39/143 32/40/144
f 29/38/145 36/41/146 35/42/147 30/39/148
